<svg width="2939" height="1432" viewBox="0 0 2939 1432" fill="none" xmlns="http://www.w3.org/2000/svg">
<rect width="2939" height="1432" fill="#E5E5E5"/>
<rect width="2939" height="1432" fill="white"/>
<rect x="814" y="545.229" width="301" height="385.386" rx="52" transform="rotate(-5.76382 814 545.229)" fill="#FFCB01"/>
<path d="M1042.46 727.736L957.051 737.121L966.928 827.002L940.089 829.951L917.725 626.426L1043.81 612.572L1046.24 634.658L946.991 645.563L954.64 715.175L1040.05 705.79L1042.46 727.736Z" fill="white"/>
<path d="M1042.46 727.736L1044.1 742.647L1059.01 741.008L1057.37 726.098L1042.46 727.736ZM957.051 737.121L955.413 722.211L940.503 723.849L942.141 738.76L957.051 737.121ZM966.928 827.002L968.566 841.912L983.476 840.274L981.838 825.364L966.928 827.002ZM940.089 829.951L925.179 831.59L926.817 846.5L941.728 844.862L940.089 829.951ZM917.725 626.426L916.087 611.516L901.177 613.155L902.815 628.065L917.725 626.426ZM1043.81 612.572L1058.72 610.933L1057.08 596.023L1042.17 597.661L1043.81 612.572ZM1046.24 634.658L1047.88 649.568L1062.79 647.929L1061.15 633.019L1046.24 634.658ZM946.991 645.563L945.352 630.653L930.442 632.291L932.08 647.201L946.991 645.563ZM954.64 715.175L939.73 716.814L941.368 731.724L956.278 730.086L954.64 715.175ZM1040.05 705.79L1054.96 704.152L1053.32 689.242L1038.41 690.88L1040.05 705.79ZM1040.82 712.826L955.413 722.211L958.69 752.032L1044.1 742.647L1040.82 712.826ZM942.141 738.76L952.018 828.641L981.838 825.364L971.962 735.483L942.141 738.76ZM965.289 812.092L938.451 815.041L941.728 844.862L968.566 841.912L965.289 812.092ZM955 828.313L932.636 624.788L902.815 628.065L925.179 831.59L955 828.313ZM919.364 641.337L1045.45 627.482L1042.17 597.661L916.087 611.516L919.364 641.337ZM1028.9 614.21L1031.33 636.296L1061.15 633.019L1058.72 610.933L1028.9 614.21ZM1044.6 619.747L945.352 630.653L948.629 660.473L1047.88 649.568L1044.6 619.747ZM932.08 647.201L939.73 716.814L969.55 713.537L961.901 643.925L932.08 647.201ZM956.278 730.086L1041.69 720.701L1038.41 690.88L953.001 700.265L956.278 730.086ZM1025.14 707.429L1027.55 729.375L1057.37 726.098L1054.96 704.152L1025.14 707.429Z" fill="white"/>
<path d="M979 915.5L928 848L927 846.5L983.5 840.5L973.5 750.5L1059 741L1053.5 689L968 698.5L963.5 659L1063 648.5V647.5L1057 596L1124 614L1136 727L1146 839L1146.5 844L1147 847.5V857.5L1146.5 861L1146 864L1145 867.5L1144 870L1143 872.5L1142 874.5L1141 876.5L1139.5 879L1138 881.5L1136 884L1134 886.5L1132 888.5L1129.5 891L1127 893L1124.5 895L1121 897L1117.5 899L1114 900.5L1109.5 902L1105 903L979 915.5Z" fill="#DDB108"/>
<rect x="1146.51" y="503" width="265.193" height="345.568" rx="52" transform="rotate(6.23011 1146.51 503)" fill="#008DD2"/>
<ellipse cx="1259.68" cy="697.735" rx="32.5" ry="49.5" transform="rotate(6.23011 1259.68 697.735)" fill="#0576B2"/>
<path d="M1188.51 690.946C1190.13 676.128 1194.47 663.117 1201.54 651.911C1208.7 640.716 1217.81 632.468 1228.85 627.167C1239.99 621.876 1252.23 619.958 1265.56 621.413C1286.15 623.661 1302.01 632.607 1313.13 648.25C1324.34 663.902 1328.65 683.565 1326.07 707.237L1325.87 709.054C1324.26 723.779 1319.97 736.703 1313.01 747.825C1306.14 758.864 1297.09 767.07 1285.85 772.444C1274.7 777.829 1262.32 779.778 1248.71 778.293C1228.21 776.054 1212.35 767.109 1201.14 751.456C1190.02 735.813 1185.75 716.249 1188.31 692.764L1188.51 690.946ZM1214.17 696.86C1212.34 713.636 1214.74 727.525 1221.37 738.528C1228.09 749.541 1237.97 755.759 1251.02 757.184C1264.16 758.618 1275.15 754.632 1284.01 745.225C1292.87 735.724 1298.32 721.701 1300.34 703.155C1302.15 686.566 1299.66 672.714 1292.86 661.597C1286.16 650.398 1276.28 644.086 1263.24 642.662C1250.47 641.268 1239.62 645.223 1230.68 654.527C1221.74 663.83 1216.24 677.942 1214.17 696.86Z" fill="white"/>
<path d="M1201.54 651.911L1188.9 643.827L1188.88 643.867L1188.85 643.907L1201.54 651.911ZM1228.85 627.167L1222.42 613.618L1222.39 613.631L1222.37 613.644L1228.85 627.167ZM1313.13 648.25L1300.9 656.939L1300.92 656.962L1300.93 656.984L1313.13 648.25ZM1313.01 747.825L1300.3 739.862L1300.28 739.883L1300.27 739.904L1313.01 747.825ZM1285.85 772.444L1279.38 758.911L1279.35 758.924L1279.32 758.937L1285.85 772.444ZM1201.14 751.456L1188.91 760.146L1188.93 760.168L1188.95 760.19L1201.14 751.456ZM1221.37 738.528L1208.52 746.266L1208.54 746.303L1208.56 746.34L1221.37 738.528ZM1284.01 745.225L1294.93 755.506L1294.95 755.482L1294.98 755.458L1284.01 745.225ZM1292.86 661.597L1279.98 669.297L1280.02 669.362L1280.06 669.427L1292.86 661.597ZM1203.42 692.574C1204.82 679.738 1208.52 668.963 1214.23 659.916L1188.85 643.907C1180.42 657.27 1175.43 672.519 1173.6 689.319L1203.42 692.574ZM1214.17 659.996C1219.97 650.944 1227.02 644.684 1235.34 640.691L1222.37 613.644C1208.59 620.253 1197.44 630.489 1188.9 643.827L1214.17 659.996ZM1235.29 640.716C1243.7 636.721 1253.11 635.144 1263.93 636.324L1267.18 606.501C1251.34 604.772 1236.29 607.031 1222.42 613.618L1235.29 640.716ZM1263.93 636.324C1280.65 638.149 1292.48 645.09 1300.9 656.939L1325.35 639.56C1311.54 620.123 1291.66 609.173 1267.18 606.501L1263.93 636.324ZM1300.93 656.984C1309.52 668.968 1313.44 684.701 1311.16 705.609L1340.98 708.864C1343.87 682.428 1339.16 658.837 1325.32 639.515L1300.93 656.984ZM1311.16 705.609L1310.96 707.426L1340.78 710.682L1340.98 708.864L1311.16 705.609ZM1310.96 707.426C1309.56 720.192 1305.91 730.892 1300.3 739.862L1325.72 755.787C1334.03 742.513 1338.96 727.366 1340.78 710.682L1310.96 707.426ZM1300.27 739.904C1294.85 748.623 1287.92 754.826 1279.38 758.911L1292.32 785.978C1306.26 779.315 1317.44 769.105 1325.75 755.745L1300.27 739.904ZM1279.32 758.937C1270.97 762.972 1261.46 764.595 1250.34 763.381L1247.08 793.204C1263.18 794.961 1278.43 792.685 1292.37 785.952L1279.32 758.937ZM1250.34 763.381C1233.74 761.569 1221.87 754.638 1213.34 742.722L1188.95 760.19C1202.83 779.58 1222.68 790.54 1247.08 793.204L1250.34 763.381ZM1213.37 742.766C1204.84 730.768 1200.96 715.105 1203.22 694.392L1173.4 691.136C1170.53 717.393 1175.21 740.858 1188.91 760.146L1213.37 742.766ZM1203.22 694.392L1203.42 692.574L1173.6 689.319L1173.4 691.136L1203.22 694.392ZM1199.26 695.233C1197.19 714.247 1199.73 731.681 1208.52 746.266L1234.22 730.789C1229.75 723.369 1227.5 713.024 1229.09 698.488L1199.26 695.233ZM1208.56 746.34C1217.75 761.405 1231.81 770.176 1249.39 772.095L1252.64 742.272C1244.13 741.343 1238.42 737.676 1234.17 730.715L1208.56 746.34ZM1249.39 772.095C1267.08 774.026 1282.77 768.432 1294.93 755.506L1273.09 734.944C1267.54 740.832 1261.23 743.21 1252.64 742.272L1249.39 772.095ZM1294.98 755.458C1306.83 742.757 1313.03 725.193 1315.25 704.783L1285.43 701.527C1283.61 718.21 1278.92 728.692 1273.04 734.992L1294.98 755.458ZM1315.25 704.783C1317.32 685.83 1314.62 668.425 1305.65 653.768L1280.06 669.427C1284.7 677.002 1286.98 687.303 1285.43 701.527L1315.25 704.783ZM1305.73 653.897C1296.6 638.638 1282.55 629.681 1264.86 627.75L1261.61 657.573C1270.02 658.491 1275.71 662.157 1279.98 669.297L1305.73 653.897ZM1264.86 627.75C1247.45 625.849 1232 631.494 1219.86 644.135L1241.5 664.918C1247.23 658.952 1253.49 656.687 1261.61 657.573L1264.86 627.75ZM1219.86 644.135C1207.76 656.727 1201.52 674.523 1199.26 695.233L1229.09 698.488C1230.95 681.361 1235.72 670.934 1241.5 664.918L1219.86 644.135Z" fill="white"/>
<path d="M1314 869L1218 858.5L1204.5 777L1211.5 782L1223.5 787.5L1232 789.993L1240 792L1248 793.5L1256.5 793.5L1267.5 793.5L1279 791L1287 788.5L1293.5 785.5L1301.5 781L1309 775.5L1314.5 770.286L1320.2 764L1324.5 758L1328 752L1331.04 745.5L1334 739.5L1336.14 733.5L1338.36 726.5L1340 719L1341 711.5L1342 696.5L1342 690.218L1341.5 684L1341 681L1340.5 677.5L1340 674L1339 669.5L1338 665.5L1337 662.5L1336 659.5L1335 656.934L1333.5 653.5L1332.5 651.5L1331.5 649.5L1330.5 647.5L1329.5 646L1394 679L1385 763L1383 781L1381.5 796L1380 807L1378.98 817L1378 827L1375.01 836.997L1371 845L1366.5 851.5L1362 856L1356.5 860.5L1349.5 864.5L1342 868L1331.5 869.654L1327 870L1321 869.654L1314 869Z" fill="#0576B2"/>
<rect x="1346" y="645.426" width="207" height="270" rx="36" transform="rotate(-14.9572 1346 645.426)" fill="#0AC400"/>
<rect x="1447.74" y="712.437" width="52" height="41" transform="rotate(-14.9572 1447.74 712.437)" fill="#0AA702"/>
<path d="M1491.29 764.313L1460.63 772.502L1474.74 825.294L1457.44 829.915L1422.57 699.414L1465.78 687.872C1480.48 683.945 1492.66 684.275 1502.34 688.86C1512.07 693.429 1518.65 702.107 1522.06 714.895C1524.24 723.021 1523.92 730.692 1521.11 737.909C1518.36 745.109 1513.47 751.249 1506.44 756.328L1551.89 803.53L1552.18 804.606L1533.71 809.538L1491.29 764.313ZM1456.87 758.43L1483.31 751.366C1491.86 749.083 1498.05 745.061 1501.89 739.298C1505.79 733.519 1506.75 726.925 1504.77 719.516C1502.61 711.449 1498.54 705.911 1492.55 702.902C1486.62 699.877 1479.11 699.548 1470.01 701.914L1443.66 708.954L1456.87 758.43Z" fill="white"/>
<path d="M1491.29 764.313L1496.39 759.523L1493.53 756.469L1489.48 757.55L1491.29 764.313ZM1460.63 772.502L1458.83 765.739L1452.06 767.545L1453.87 774.308L1460.63 772.502ZM1474.74 825.294L1476.54 832.057L1483.31 830.25L1481.5 823.487L1474.74 825.294ZM1457.44 829.915L1450.67 831.722L1452.48 838.485L1459.24 836.678L1457.44 829.915ZM1422.57 699.414L1420.77 692.651L1414 694.457L1415.81 701.22L1422.57 699.414ZM1502.34 688.86L1499.34 695.185L1499.35 695.191L1499.36 695.197L1502.34 688.86ZM1521.11 737.909L1514.58 735.369L1514.58 735.39L1514.57 735.412L1521.11 737.909ZM1506.44 756.328L1502.34 750.654L1495.8 755.375L1501.4 761.183L1506.44 756.328ZM1551.89 803.53L1558.65 801.723L1558.19 799.977L1556.93 798.675L1551.89 803.53ZM1552.18 804.606L1553.98 811.369L1560.75 809.562L1558.94 802.799L1552.18 804.606ZM1533.71 809.538L1528.61 814.327L1531.47 817.382L1535.52 816.301L1533.71 809.538ZM1456.87 758.43L1450.11 760.236L1451.92 766.999L1458.68 765.193L1456.87 758.43ZM1501.89 739.298L1496.09 735.384L1496.07 735.401L1496.06 735.418L1501.89 739.298ZM1492.55 702.902L1489.37 709.137L1489.39 709.147L1489.41 709.157L1492.55 702.902ZM1470.01 701.914L1468.25 695.14L1468.22 695.145L1468.2 695.151L1470.01 701.914ZM1443.66 708.954L1441.85 702.191L1435.09 703.998L1436.89 710.761L1443.66 708.954ZM1489.48 757.55L1458.83 765.739L1462.44 779.264L1493.09 771.075L1489.48 757.55ZM1453.87 774.308L1467.97 827.1L1481.5 823.487L1467.4 770.695L1453.87 774.308ZM1472.93 818.531L1455.63 823.152L1459.24 836.678L1476.54 832.057L1472.93 818.531ZM1464.2 828.108L1429.34 697.607L1415.81 701.22L1450.67 831.722L1464.2 828.108ZM1424.38 706.176L1467.58 694.635L1463.97 681.109L1420.77 692.651L1424.38 706.176ZM1467.58 694.635C1481.34 690.959 1491.69 691.558 1499.34 695.185L1505.34 682.534C1493.64 676.991 1479.61 676.932 1463.97 681.109L1467.58 694.635ZM1499.36 695.197C1506.8 698.689 1512.28 705.406 1515.3 716.701L1528.83 713.088C1525.01 698.809 1517.34 688.169 1505.31 682.523L1499.36 695.197ZM1515.3 716.701C1517.12 723.521 1516.81 729.66 1514.58 735.369L1527.63 740.448C1531.03 731.724 1531.35 722.521 1528.83 713.088L1515.3 716.701ZM1514.57 735.412C1512.36 741.183 1508.41 746.27 1502.34 750.654L1510.54 762.002C1518.53 756.228 1524.35 749.036 1527.65 740.406L1514.57 735.412ZM1501.4 761.183L1546.85 808.385L1556.93 798.675L1511.48 751.472L1501.4 761.183ZM1545.13 805.337L1545.41 806.412L1558.94 802.799L1558.65 801.723L1545.13 805.337ZM1550.37 797.843L1531.91 802.775L1535.52 816.301L1553.98 811.369L1550.37 797.843ZM1538.82 804.749L1496.39 759.523L1486.18 769.102L1528.61 814.327L1538.82 804.749ZM1458.68 765.193L1485.12 758.129L1481.51 744.603L1455.07 751.667L1458.68 765.193ZM1485.12 758.129C1494.84 755.532 1502.69 750.717 1507.71 743.178L1496.06 735.418C1493.41 739.404 1488.88 742.635 1481.51 744.603L1485.12 758.129ZM1507.69 743.212C1512.84 735.575 1513.97 726.854 1511.53 717.709L1498 721.323C1499.52 726.996 1498.73 731.464 1496.09 735.384L1507.69 743.212ZM1511.53 717.709C1508.99 708.222 1503.89 700.767 1495.69 696.647L1489.41 709.157C1493.19 711.055 1496.23 714.676 1498 721.323L1511.53 717.709ZM1495.73 696.667C1487.75 692.594 1478.32 692.518 1468.25 695.14L1471.77 708.689C1479.89 706.577 1485.49 707.16 1489.37 709.137L1495.73 696.667ZM1468.2 695.151L1441.85 702.191L1445.46 715.717L1471.81 708.677L1468.2 695.151ZM1436.89 710.761L1450.11 760.236L1463.64 756.623L1450.42 707.147L1436.89 710.761Z" fill="white"/>
<path d="M1531 875.5L1452.44 838.496L1483.35 830.237L1469.29 777.584L1489.09 772.293L1531.52 817.369L1560.64 809.59L1558.06 799.928L1553.74 795.389L1547.94 789.175L1542.88 783.799L1537.83 778.423L1531.41 771.855L1525.74 766.125L1519.33 759.557L1516.98 756.563L1520.2 753.115L1522.1 750.538L1525.06 746.124L1527.98 739.649L1529.37 735.139L1530.49 729.663L1530.3 725.058L1529.97 719.969L1529.29 715.492L1528.26 711.628L1527.23 707.763L1525.71 704.028L1524.46 701.259L1521.72 696.815L1587.5 747.5L1604.83 812.275L1605.51 816.752L1605.84 821.84L1605.55 826.575L1604.78 831.439L1603.75 835.336L1602.11 838.88L1600.47 842.424L1598.7 845.484L1596.44 848.674L1593.71 851.992L1589.88 855.086L1585.21 858.921L1578.83 862.177L1574.13 863.95L1531 875.5Z" fill="#0AA702"/>
<rect x="1569" y="525.623" width="301" height="385.386" rx="52" transform="rotate(-3.35657 1569 525.623)" fill="#AE4A86"/>
<path d="M1886.38 796.005L1677.94 606.884L1658.27 809.384L1734.8 901.561L1841.64 895.795L1848.1 894.916L1855.97 892.451L1861.34 890.132L1867.13 886.287L1872.38 881.972L1876.64 877.715L1880.81 871.961L1883.98 866.266L1885.75 862.155L1887.04 858.574L1888.27 853.993L1888.95 848.444L1889.13 842.924L1888.95 839.93L1888.81 837.434L1888.66 834.938L1886.38 796.005Z" fill="#913D6E"/>
<path d="M1737.14 822.015C1711.08 823.544 1690.32 817.26 1674.88 803.165C1659.43 789.069 1650.87 767.741 1649.2 739.182L1642.44 623.892L1663.71 622.645L1670.42 737.072C1671.79 760.456 1678.09 777.589 1689.31 788.471C1700.52 799.352 1716.1 804.209 1736.03 803.04C1756.16 801.859 1771.15 795.21 1781.02 783.091C1790.89 770.973 1795.13 753.222 1793.76 729.838L1787.05 615.411L1807.75 614.196L1814.51 729.486C1816.19 758.045 1810.18 780.227 1796.49 796.032C1782.99 811.825 1763.21 820.486 1737.14 822.015Z" fill="white"/>
<path d="M1674.88 803.165L1684.99 792.085L1684.99 792.085L1674.88 803.165ZM1642.44 623.892L1641.56 608.918L1626.58 609.796L1627.46 624.771L1642.44 623.892ZM1663.71 622.645L1678.69 621.766L1677.81 606.792L1662.83 607.67L1663.71 622.645ZM1781.02 783.091L1792.65 792.563L1792.65 792.563L1781.02 783.091ZM1787.05 615.411L1786.17 600.436L1771.2 601.315L1772.08 616.289L1787.05 615.411ZM1807.75 614.196L1822.73 613.318L1821.85 598.344L1806.87 599.222L1807.75 614.196ZM1796.49 796.032L1785.15 786.211L1785.12 786.248L1785.09 786.286L1796.49 796.032ZM1736.26 807.041C1713.17 808.395 1696.74 802.809 1684.99 792.085L1664.76 814.244C1683.9 831.711 1708.98 838.693 1738.02 836.989L1736.26 807.041ZM1684.99 792.085C1673.36 781.473 1665.7 764.424 1664.17 738.304L1634.22 740.06C1636.04 771.058 1645.5 796.664 1664.76 814.244L1684.99 792.085ZM1664.17 738.304L1657.41 623.014L1627.46 624.771L1634.22 740.06L1664.17 738.304ZM1643.31 638.867L1664.59 637.619L1662.83 607.67L1641.56 608.918L1643.31 638.867ZM1648.74 623.523L1655.45 737.95L1685.4 736.194L1678.69 621.766L1648.74 623.523ZM1655.45 737.95C1656.93 763.256 1663.88 784.7 1678.86 799.236L1699.75 777.705C1692.3 770.478 1686.66 757.655 1685.4 736.194L1655.45 737.95ZM1678.86 799.236C1693.88 813.811 1714.02 819.357 1736.91 818.014L1735.15 788.066C1718.18 789.061 1707.16 784.894 1699.75 777.705L1678.86 799.236ZM1736.91 818.014C1759.94 816.663 1779.41 808.824 1792.65 792.563L1769.39 773.62C1762.89 781.596 1752.37 787.056 1735.15 788.066L1736.91 818.014ZM1792.65 792.563C1805.83 776.374 1810.22 754.266 1808.74 728.96L1778.79 730.716C1780.05 752.178 1775.94 765.572 1769.39 773.62L1792.65 792.563ZM1808.74 728.96L1802.03 614.532L1772.08 616.289L1778.79 730.716L1808.74 728.96ZM1787.93 630.385L1808.63 629.171L1806.87 599.222L1786.17 600.436L1787.93 630.385ZM1792.78 615.075L1799.54 730.365L1829.49 728.608L1822.73 613.318L1792.78 615.075ZM1799.54 730.365C1801.07 756.485 1795.46 774.312 1785.15 786.211L1807.83 805.853C1824.9 786.142 1831.31 759.606 1829.49 728.608L1799.54 730.365ZM1785.09 786.286C1774.89 798.224 1759.37 805.686 1736.26 807.041L1738.02 836.989C1767.05 835.287 1791.1 825.427 1807.89 805.777L1785.09 786.286Z" fill="white"/>
<path d="M1876.63 629.791L1821.7 598.453L1829.57 732.722L1829.78 744.731L1886.38 796.005L1876.63 629.791Z" fill="#913D6E"/>
<rect x="1854" y="605.426" width="207" height="270" rx="24" transform="rotate(-14.9572 1854 605.426)" fill="#F28243"/>
<path d="M1956 773L1954 675L2001 700.5L2023.5 656L2089.5 686.5L2104.5 742.5L2112.5 771L2116 783.5L2118 791V799L2117 804.5L2113.5 810L2109 815L2103.5 818L2082.5 824L2042 834.5L1956 773Z" fill="#D3723F"/>
<path d="M1951.72 680.434L1996.63 740.486L2005.61 666.037L2019.71 662.271L2041.73 744.693L2030.86 747.597L2022.28 715.499L2014.05 680.583L2004.82 754.553L1996.5 756.776L1951.71 697.418L1962 731.605L1970.57 763.702L1959.7 766.606L1937.68 684.184L1951.72 680.434Z" fill="white"/>
<path d="M1951.72 680.434L1955.72 677.439L1953.7 674.73L1950.43 675.603L1951.72 680.434ZM1996.63 740.486L1992.63 743.48L2000.1 753.474L2001.6 741.085L1996.63 740.486ZM2005.61 666.037L2004.32 661.206L2001.05 662.079L2000.65 665.438L2005.61 666.037ZM2019.71 662.271L2024.54 660.98L2023.25 656.15L2018.42 657.44L2019.71 662.271ZM2041.73 744.693L2043.02 749.524L2047.85 748.233L2046.56 743.402L2041.73 744.693ZM2030.86 747.597L2026.03 748.887L2027.32 753.718L2032.15 752.427L2030.86 747.597ZM2022.28 715.499L2017.42 716.647L2017.43 716.719L2017.45 716.79L2022.28 715.499ZM2014.05 680.583L2018.91 679.435L2009.09 679.964L2014.05 680.583ZM2004.82 754.553L2006.11 759.384L2009.36 758.514L2009.78 755.172L2004.82 754.553ZM1996.5 756.776L1992.51 759.788L1994.53 762.476L1997.79 761.607L1996.5 756.776ZM1951.71 697.418L1955.7 694.407L1946.92 698.859L1951.71 697.418ZM1962 731.605L1966.83 730.315L1966.81 730.24L1966.78 730.165L1962 731.605ZM1970.57 763.702L1971.86 768.533L1976.69 767.243L1975.4 762.412L1970.57 763.702ZM1959.7 766.606L1954.87 767.897L1956.16 772.727L1960.99 771.437L1959.7 766.606ZM1937.68 684.184L1936.39 679.353L1931.56 680.644L1932.85 685.474L1937.68 684.184ZM1947.72 683.428L1992.63 743.48L2000.64 737.491L1955.72 677.439L1947.72 683.428ZM2001.6 741.085L2010.58 666.635L2000.65 665.438L1991.67 739.887L2001.6 741.085ZM2006.9 670.867L2021 667.102L2018.42 657.44L2004.32 661.206L2006.9 670.867ZM2014.88 663.561L2036.9 745.983L2046.56 743.402L2024.54 660.98L2014.88 663.561ZM2040.44 739.862L2029.57 742.766L2032.15 752.427L2043.02 749.524L2040.44 739.862ZM2035.69 746.306L2027.11 714.209L2017.45 716.79L2026.03 748.887L2035.69 746.306ZM2027.15 714.352L2018.91 679.435L2009.18 681.731L2017.42 716.647L2027.15 714.352ZM2009.09 679.964L1999.86 753.934L2009.78 755.172L2019.01 681.202L2009.09 679.964ZM2003.53 749.722L1995.21 751.946L1997.79 761.607L2006.11 759.384L2003.53 749.722ZM2000.49 753.765L1955.7 694.407L1947.72 700.43L1992.51 759.788L2000.49 753.765ZM1946.92 698.859L1957.21 733.046L1966.78 730.165L1956.5 695.978L1946.92 698.859ZM1957.16 732.896L1965.74 764.993L1975.4 762.412L1966.83 730.315L1957.16 732.896ZM1969.28 758.872L1958.41 761.775L1960.99 771.437L1971.86 768.533L1969.28 758.872ZM1964.53 765.316L1942.51 682.894L1932.85 685.474L1954.87 767.897L1964.53 765.316ZM1938.97 689.015L1953.01 685.264L1950.43 675.603L1936.39 679.353L1938.97 689.015Z" fill="white"/>
</svg>
