<svg width="752" height="295" viewBox="0 0 752 295" fill="none" xmlns="http://www.w3.org/2000/svg">
<path d="M400 68L299 295H711.5L714.5 294.5L717.5 293.5L719.5 292.5L721 291.5L723 290L724 289L725.5 287L727 284.5L727.5 283.5L728 282L728.5 280L729 277V87.3008V85L728.5 82.5L728 81L727.5 79.5L726.5 77.5L725.5 76L724.5 74.5L723 73L721 71.5L719.5 70.5L717.5 69.5L716 69L714 68.5L711.116 68H400Z" fill="white"/>
<path d="M299 295L400 68L0.5 67.5V295H299Z" fill="#13BAC5"/>
<path d="M45 194.375C44.4375 194.375 43.3125 194.375 41.625 194.375C40.125 194.375 38.4375 194.375 36.5625 194.375C34.6875 194.375 32.9062 194.375 31.2188 194.375C29.5312 194.375 28.4062 194.375 27.8438 194.375C25.5938 194 24.1875 193.531 23.625 192.969C23.0625 192.219 22.7812 191.094 22.7812 189.594C22.7812 188.094 23.7188 186.594 25.5938 185.094C27.4688 183.594 29.625 182.188 32.0625 180.875C34.6875 179.375 37.2188 177.969 39.6562 176.656C42.0938 175.156 43.875 173.75 45 172.438V169.344C45 168.031 45 166.625 45 165.125C45.1875 163.438 45.2812 161.938 45.2812 160.625V148.531C45.2812 145.719 45.0938 143 44.7188 140.375C44.5312 137.75 44.25 135.031 43.875 132.219C43.6875 130.344 43.4062 128.281 43.0312 126.031V127.438C42.8438 128.375 42.4688 129.125 41.9062 129.688C41.3438 130.062 40.5938 130.344 39.6562 130.531C38.9062 130.719 37.9688 130.812 36.8438 130.812C34.5938 130.812 32.5312 130.062 30.6562 128.562C28.7812 126.875 27.8438 124.625 27.8438 121.812C27.8438 118.062 29.5312 114.594 32.9062 111.406C36.4688 108.219 40.875 105.313 46.125 102.688C51.5625 99.875 57.5625 97.4375 64.125 95.375C70.875 93.3125 77.4375 91.625 83.8125 90.3125C90.1875 88.8125 96.1875 87.7812 101.812 87.2188C107.438 86.4688 111.844 86.0938 115.031 86.0938H118.688C120.375 86.0938 122.156 86.1875 124.031 86.375C126.094 86.375 127.969 86.375 129.656 86.375H133.312C140.062 88.4375 143.438 92.75 143.438 99.3125V102.125C143.438 103.437 143.344 104.75 143.156 106.062C142.969 107.375 142.594 108.594 142.031 109.719C141.656 110.656 140.906 111.125 139.781 111.125C139.406 111.125 139.031 111.125 138.656 111.125C138.469 110.938 138.281 110.844 138.094 110.844C137.531 108.594 136.875 106.438 136.125 104.375C135.375 102.688 134.531 101.094 133.594 99.5938C132.844 97.9062 132 96.6875 131.062 95.9375H128.25C126.938 95.9375 125.531 95.9375 124.031 95.9375C122.719 95.75 121.406 95.6562 120.094 95.6562H117.281C113.344 95.6562 108.281 95.9375 102.094 96.5C96.0938 97.0625 90 98.1875 83.8125 99.875C77.8125 101.562 72.2812 103.906 67.2188 106.906C62.1562 109.906 58.7812 113.75 57.0938 118.438V122.375C57.0938 124.25 57.0938 126.312 57.0938 128.562C57.0938 130.812 57.0938 132.875 57.0938 134.75V138.969C57.0938 144.969 57.0938 150.969 57.0938 156.969C57.0938 162.969 57.9375 168.875 59.625 174.688C60 174.688 60.6562 174.781 61.5938 174.969C62.5312 174.969 63.0938 174.969 63.2812 174.969C68.3438 174.969 73.4062 174.406 78.4688 173.281C83.5312 172.156 88.5 170.938 93.375 169.625C98.4375 168.312 103.5 167.188 108.562 166.25C113.625 165.125 118.781 164.562 124.031 164.562C124.781 164.562 126.094 164.469 127.969 164.281C129.844 164.094 131.719 164.188 133.594 164.562C135.656 164.75 137.438 165.219 138.938 165.969C140.625 166.719 141.469 168.031 141.469 169.906C141.469 170.094 141.281 170.469 140.906 171.031C140.719 171.594 140.625 172.062 140.625 172.438C139.5 172.438 137.625 172.531 135 172.719C132.562 172.906 129.938 173.094 127.125 173.281C124.312 173.469 121.594 173.75 118.969 174.125C116.531 174.312 114.75 174.5 113.625 174.688C113.062 174.875 111.469 175.25 108.844 175.812C106.219 176.375 103.312 177.125 100.125 178.062C97.125 178.812 94.125 179.562 91.125 180.312C88.125 181.062 85.7812 181.625 84.0938 182C83.1562 182.375 81.5625 182.938 79.3125 183.688C77.25 184.25 75 184.906 72.5625 185.656C70.3125 186.406 68.1562 187.156 66.0938 187.906C64.0312 188.656 62.7188 189.125 62.1562 189.312C61.9688 189.5 61.5938 189.875 61.0312 190.438L59.625 191.844V193.812C59.625 194.75 59.625 195.781 59.625 196.906C59.625 197.844 59.625 198.781 59.625 199.719V201.688C59.625 205.25 59.625 209.188 59.625 213.5C59.625 217.625 59.8125 221.844 60.1875 226.156C60.75 230.281 61.5 234.312 62.4375 238.25C63.5625 242 65.1562 245.375 67.2188 248.375C67.2188 248.375 67.5938 248.656 68.3438 249.219C69.0938 249.781 69.8438 250.344 70.5938 250.906C71.5312 251.281 72.375 251.75 73.125 252.312C73.875 252.875 74.3438 253.25 74.5312 253.438V254.562C74.5312 254.938 74.5312 255.312 74.5312 255.688C74.7188 255.875 74.8125 256.156 74.8125 256.531C74.8125 259.156 74.3438 260.938 73.4062 261.875C72.4688 262.812 70.6875 263.281 68.0625 263.281C64.875 263.281 62.25 261.969 60.1875 259.344C58.125 256.531 56.3438 253.062 54.8438 248.938C53.5312 244.625 52.5 239.844 51.75 234.594C51.1875 229.156 50.5312 223.906 49.7812 218.844C49.2188 213.781 48.5625 209.094 47.8125 204.781C47.25 200.281 46.3125 196.812 45 194.375ZM170.348 253.438C170.348 252.875 170.348 251.938 170.348 250.625C170.348 249.125 170.254 247.625 170.066 246.125C170.066 244.438 170.066 242.938 170.066 241.625C170.066 240.125 170.066 239 170.066 238.25C170.066 233 170.441 227.375 171.191 221.375C171.941 215.375 173.066 209.562 174.566 203.938C176.066 198.125 178.035 192.594 180.473 187.344C183.098 181.906 186.285 177.219 190.035 173.281C193.973 169.156 198.473 165.875 203.535 163.438C208.598 161 214.41 159.781 220.973 159.781C225.285 159.781 228.566 161.094 230.816 163.719C233.066 166.156 234.566 169.25 235.316 173C236.254 176.75 236.723 180.688 236.723 184.812C236.91 188.938 237.004 192.594 237.004 195.781C237.004 203.094 236.254 210.781 234.754 218.844C233.254 226.719 230.816 233.938 227.441 240.5C224.066 247.062 219.379 252.5 213.379 256.812C207.566 261.125 200.254 263.281 191.441 263.281C188.816 263.281 186.566 263.188 184.691 263C182.816 262.812 181.129 262.344 179.629 261.594C178.129 260.656 176.629 259.625 175.129 258.5C173.629 257.188 172.035 255.5 170.348 253.438ZM180.191 248.375C181.879 250.062 183.848 250.906 186.098 250.906C188.348 250.906 190.504 250.906 192.566 250.906C199.691 250.906 205.504 249.125 210.004 245.562C214.504 241.812 217.973 237.219 220.41 231.781C223.035 226.344 224.816 220.438 225.754 214.062C226.879 207.5 227.441 201.406 227.441 195.781C227.441 193.156 227.441 190.344 227.441 187.344C227.629 184.156 227.348 181.25 226.598 178.625C226.035 175.812 224.91 173.562 223.223 171.875C221.535 170 219.004 169.062 215.629 169.062C215.629 172.062 215.254 174.312 214.504 175.812C213.754 177.312 212.723 178.344 211.41 178.906C210.285 179.469 208.879 179.844 207.191 180.031C205.691 180.031 204.004 180.312 202.129 180.875C200.441 181.438 198.754 182.281 197.066 183.406C195.379 184.531 193.879 186.5 192.566 189.312C189.566 197.75 186.66 205.906 183.848 213.781C181.223 221.469 179.91 229.625 179.91 238.25C179.91 238.812 179.91 239.562 179.91 240.5C179.91 241.25 179.91 242.188 179.91 243.312C180.098 244.438 180.191 245.469 180.191 246.406C180.191 247.156 180.191 247.812 180.191 248.375ZM276.57 253.438C278.445 245.938 279.758 239.188 280.508 233.188C281.445 227 282.008 221 282.195 215.188C282.57 209.375 282.664 203.281 282.476 196.906C282.476 190.531 282.476 183.312 282.476 175.25C279.476 175.25 277.226 175.438 275.726 175.812C274.414 176.188 273.476 176.656 272.914 177.219C272.351 177.594 271.976 178.062 271.789 178.625C271.601 179.188 271.226 179.75 270.664 180.312C270.289 180.688 269.445 181.062 268.133 181.438C266.82 181.812 264.758 182 261.945 182C260.258 182 259.039 181.344 258.289 180.031C257.539 178.719 257.164 177.219 257.164 175.531C257.164 174.031 258.195 172.438 260.258 170.75C262.133 169.062 264.383 167.375 267.008 165.688C269.82 164 272.633 162.594 275.445 161.469C278.445 160.344 280.976 159.781 283.039 159.781C283.789 159.781 284.82 160.156 286.133 160.906C287.633 161.469 289.039 162.312 290.351 163.438C291.664 164.375 292.695 165.406 293.445 166.531C294.383 167.656 294.851 168.781 294.851 169.906V209C296.726 206.188 299.726 202.344 303.851 197.469C307.976 192.594 312.57 187.812 317.633 183.125C322.695 178.25 327.851 174.031 333.101 170.469C338.351 166.906 343.039 165.125 347.164 165.125C352.789 165.125 356.726 167 358.976 170.75C361.226 174.312 362.351 178.812 362.351 184.25C360.101 184.25 358.32 183.875 357.008 183.125C355.695 182.375 354.476 181.531 353.351 180.594C352.414 179.656 351.383 178.906 350.258 178.344C349.133 177.594 347.633 177.219 345.758 177.219C339.758 178.344 334.133 181.344 328.883 186.219C323.633 191.094 318.758 196.812 314.258 203.375C309.945 209.938 306.008 216.875 302.445 224.188C299.07 231.5 296.07 238.156 293.445 244.156C290.82 250.156 288.664 255.031 286.976 258.781C285.476 262.531 284.539 264.031 284.164 263.281C282.289 263.281 280.508 262.438 278.82 260.75C277.32 258.875 276.57 256.719 276.57 254.281V253.438Z" fill="white"/>
<path d="M411.48 147.688C407.73 147.688 405.105 148.438 403.605 149.938C402.105 151.438 400.886 153.031 399.949 154.719C399.199 156.406 398.449 158 397.699 159.5C396.949 161 395.543 161.75 393.48 161.75C391.23 161.75 389.449 161.375 388.136 160.625C386.636 159.688 385.886 158 385.886 155.562C386.074 153.125 387.011 150.781 388.699 148.531C390.386 146.281 392.449 144.312 394.886 142.625C397.511 140.75 400.23 139.344 403.043 138.406C405.855 137.469 408.668 137.188 411.48 137.562C414.105 137.562 416.543 137.75 418.793 138.125C421.043 138.5 423.011 139.25 424.699 140.375C426.386 141.5 427.699 143.094 428.636 145.156C429.574 147.031 430.043 149.562 430.043 152.75V245.844L434.824 241.062C435.011 240.875 435.855 239.375 437.355 236.562C439.043 233.562 440.918 230.094 442.98 226.156C445.043 222.219 447.105 218.188 449.168 214.062C451.418 209.938 453.199 206.562 454.511 203.938C458.824 195.312 462.293 186.969 464.918 178.906C467.543 170.656 469.793 161.938 471.668 152.75C472.043 151.25 472.886 150.406 474.199 150.219C475.699 149.844 476.918 149.656 477.855 149.656C478.043 149.656 478.605 149.75 479.543 149.938C480.48 149.938 481.136 149.938 481.511 149.938C481.511 151.438 481.511 153.688 481.511 156.688C481.699 159.688 481.886 163.062 482.074 166.812C482.261 170.562 482.449 174.5 482.636 178.625C482.824 182.562 483.011 186.406 483.199 190.156C483.386 193.906 483.574 197.281 483.761 200.281C483.949 203.094 484.043 205.25 484.043 206.75C484.043 207.875 484.136 209.938 484.324 212.938C484.699 215.75 485.261 218.75 486.011 221.938C486.949 224.938 488.168 227.656 489.668 230.094C491.168 232.531 493.324 233.75 496.136 233.75C498.761 232.25 501.386 230.469 504.011 228.406C506.636 226.344 509.261 224.281 511.886 222.219C514.699 219.969 517.418 218 520.043 216.312C522.855 214.438 525.761 213.031 528.761 212.094C530.261 213.031 530.824 214.438 530.449 216.312C530.074 218.188 529.043 220.344 527.355 222.781C525.668 225.219 523.511 227.75 520.886 230.375C518.261 232.812 515.355 235.156 512.168 237.406C508.98 239.469 505.699 241.156 502.324 242.469C499.136 243.594 496.136 243.969 493.324 243.594C487.886 243.594 483.668 241.906 480.668 238.531C477.855 235.156 475.793 231.125 474.48 226.438C473.355 221.562 472.699 216.5 472.511 211.25C472.324 206 472.23 201.5 472.23 197.75C470.168 197.75 468.105 199.438 466.043 202.812C464.168 206 462.199 210.031 460.136 214.906C458.074 219.781 455.918 225.031 453.668 230.656C451.418 236.281 448.98 241.531 446.355 246.406C443.73 251.094 440.918 255.125 437.918 258.5C435.105 261.688 432.011 263.281 428.636 263.281C426.199 263.281 424.23 262.625 422.73 261.312C421.23 260 420.105 258.312 419.355 256.25C418.605 254.188 418.136 252.031 417.949 249.781C417.761 247.531 417.668 245.375 417.668 243.312V155C417.668 154.438 417.48 153.781 417.105 153.031C416.73 152.094 416.261 151.25 415.699 150.5C415.136 149.75 414.48 149.094 413.73 148.531C412.98 147.969 412.23 147.688 411.48 147.688ZM564.671 187.062L562.14 176.938L557.078 179.75L527.828 209C527.64 209.188 526.984 209 525.859 208.438C524.546 207.688 523.609 207.125 523.046 206.75C522.671 206.375 522.203 205.906 521.64 205.344C520.89 204.594 520.515 204.125 520.515 203.938V202.812C520.515 201.688 521.359 199.906 523.046 197.469C524.546 195.031 526.609 192.312 529.234 189.312C531.859 186.312 534.765 183.219 537.953 180.031C541.328 176.656 544.609 173.75 547.796 171.312C551.171 168.688 554.359 166.531 557.359 164.844C560.359 163.156 562.89 162.312 564.953 162.312C568.515 162.312 571.14 164 572.828 167.375C574.703 170.562 575.921 174.406 576.484 178.906C577.234 183.219 577.515 187.625 577.328 192.125C577.14 196.438 577.046 199.625 577.046 201.688C577.609 200.75 578.828 199.156 580.703 196.906C582.578 194.469 584.546 191.938 586.609 189.312C588.671 186.5 590.64 183.969 592.515 181.719C594.39 179.469 595.703 177.875 596.453 176.938C597.015 176.375 598.234 175.062 600.109 173C602.171 170.75 604.328 168.5 606.578 166.25C609.015 163.812 611.546 161.75 614.171 160.062C616.796 158.188 619.046 157.25 620.921 157.25C624.296 157.25 626.734 158.281 628.234 160.344C629.734 162.219 630.671 164.562 631.046 167.375C631.609 170.188 631.796 173.188 631.609 176.375C631.421 179.375 631.328 181.906 631.328 183.969C631.328 191.094 630.859 198.125 629.921 205.062C628.984 212 628.515 219.125 628.515 226.438V228.688C632.453 224.188 635.828 219.219 638.64 213.781C641.64 208.344 644.64 203 647.64 197.75C650.64 192.312 653.828 187.156 657.203 182.281C660.765 177.406 665.078 173.281 670.14 169.906C670.515 169.719 671.078 169.625 671.828 169.625C672.765 169.438 673.421 169.344 673.796 169.344C675.859 169.344 677.359 170 678.296 171.312C679.421 172.438 680.078 173.938 680.265 175.812C680.64 177.5 680.734 179.281 680.546 181.156C680.359 183.031 680.265 184.625 680.265 185.938C680.265 194 679.796 201.969 678.859 209.844C677.921 217.531 677.453 225.406 677.453 233.469C677.453 237.781 678.39 240.594 680.265 241.906C682.328 243.219 685.515 243.875 689.828 243.875C691.89 243.875 693.671 243.594 695.171 243.031C696.859 242.281 698.453 241.531 699.953 240.781C701.453 239.844 702.953 239.094 704.453 238.531C706.14 237.781 707.921 237.406 709.796 237.406C709.796 240.219 709.046 242.844 707.546 245.281C706.046 247.531 704.171 249.5 701.921 251.188C699.671 252.688 697.14 253.906 694.328 254.844C691.515 255.594 688.89 255.969 686.453 255.969C684.39 255.969 682.234 255.688 679.984 255.125C677.921 254.562 675.953 253.719 674.078 252.594C672.39 251.281 670.89 249.688 669.578 247.812C668.453 245.938 667.89 243.688 667.89 241.062V187.062C665.828 188.562 663.484 191.281 660.859 195.219C658.421 199.156 655.796 203.656 652.984 208.719C650.359 213.781 647.64 219.125 644.828 224.75C642.203 230.375 639.578 235.438 636.953 239.938C634.328 244.438 631.796 248.281 629.359 251.469C626.921 254.469 624.671 255.969 622.609 255.969C620.546 255.969 619.046 255.031 618.109 253.156C617.171 251.281 616.515 249.219 616.14 246.969C615.953 244.531 615.859 242.281 615.859 240.219C615.859 238.156 615.859 236.75 615.859 236C615.859 231.5 616.14 227 616.703 222.5C617.265 218 617.921 213.5 618.671 209C619.421 204.312 620.078 199.719 620.64 195.219C621.203 190.719 621.484 186.219 621.484 181.719C621.484 181.156 621.484 180.312 621.484 179.188C621.484 178.062 621.296 177.031 620.921 176.094C620.734 174.969 620.359 174.031 619.796 173.281C619.234 172.344 618.484 171.875 617.546 171.875C617.359 171.875 617.171 171.969 616.984 172.156C616.984 172.156 616.89 172.156 616.703 172.156C616.703 172.344 616.515 172.438 616.14 172.438C615.953 172.438 615.578 172.719 615.015 173.281C614.453 173.844 614.078 174.312 613.89 174.688C611.828 177.312 609.109 180.688 605.734 184.812C602.359 188.938 599.078 192.969 595.89 196.906C592.703 200.844 589.984 204.219 587.734 207.031C585.484 209.844 584.265 211.25 584.078 211.25C583.515 212.375 582.484 215.094 580.984 219.406C579.671 223.719 578.171 228.406 576.484 233.469C574.984 238.344 573.578 243.031 572.265 247.531C570.953 251.844 570.015 254.562 569.453 255.688C568.515 258.688 567.296 260.75 565.796 261.875C564.296 263 562.046 263.562 559.046 263.562C559.046 257.188 559.328 250.906 559.89 244.719C560.453 238.531 561.109 232.344 561.859 226.156C562.609 219.781 563.265 213.5 563.828 207.312C564.39 200.938 564.671 194.469 564.671 187.906V187.062Z" fill="#13BAC5"/>
<path d="M352 179.5L351 178.5L356 167.5L356.5 168L357.5 169L358.5 170L359.5 171.5L360 172.5L360.5 174L361 175.5L361.5 178L362 180.5L362.5 183V184.5H361.5L359 184L357.5 183.5L355.5 182.5L354 181.5L353 180.5L352 179.5Z" fill="#13BAC5" stroke="#13BAC5"/>
</svg>
